<svg width="30" height="30" xmlns="http://www.w3.org/2000/svg">

 <g>
  <title>background</title>
  <rect fill="none" id="canvas_background" height="32" width="32" y="-1" x="-1"/>
 </g>
 <g>
  <title>Layer 1</title>
  <g stroke="null" id="svg_1">
   <path fill="#7e49c3" stroke="null" id="svg_2" d="m22.213325,15.7347c-0.030695,-3.085342 2.516,-4.565138 2.629868,-4.639896c-1.431278,-2.092706 -3.661121,-2.379853 -4.454735,-2.412528c-1.896159,-0.192586 -3.701718,1.116902 -4.663659,1.116902c-0.959961,0 -2.446193,-1.088682 -4.018569,-1.060958c-2.068447,0.030695 -3.975002,1.203046 -5.039426,3.054647c-2.148155,3.726472 -0.549539,9.249096 1.543661,12.273544c1.023332,1.478311 2.243705,3.141782 3.844796,3.080887c1.543166,-0.060895 2.125381,-0.998083 3.990845,-0.998083s2.389259,0.998083 4.02154,0.966892c1.65951,-0.0302 2.711557,-1.50653 3.726472,-2.990782c1.174826,-1.717435 1.65852,-3.38041 1.687235,-3.464574c-0.036141,-0.016833 -3.234857,-1.242157 -3.268027,-4.926052z"/>
   <path fill="#7e49c3" stroke="null" id="svg_3" d="m19.1463,6.680665c0.849063,-1.030758 1.424347,-2.463026 1.267901,-3.888858c-1.225325,0.049508 -2.708586,0.814408 -3.588344,1.844175c-0.788168,0.913919 -1.477321,2.368961 -1.292655,3.769049c1.366918,0.105947 2.761065,-0.695588 3.613098,-1.724366z"/>
  </g>
 </g>
</svg>